<?xml version="1.0" encoding="UTF-8" standalone="no"?>
<!-- Created with Inkscape (http://www.inkscape.org/) -->

<svg
   width="200"
   height="100"
   viewBox="0 0 52.916665 26.458333"
   version="1.1"
   id="svg1"
   inkscape:version="1.3.2 (091e20e, 2023-11-25)"
   sodipodi:docname="client-4.svg"
   xmlns:inkscape="http://www.inkscape.org/namespaces/inkscape"
   xmlns:sodipodi="http://sodipodi.sourceforge.net/DTD/sodipodi-0.dtd"
   xmlns="http://www.w3.org/2000/svg"
   xmlns:svg="http://www.w3.org/2000/svg">
  <sodipodi:namedview
     id="namedview1"
     pagecolor="#ffffff"
     bordercolor="#000000"
     borderopacity="0.25"
     inkscape:showpageshadow="2"
     inkscape:pageopacity="0.0"
     inkscape:pagecheckerboard="0"
     inkscape:deskcolor="#d1d1d1"
     inkscape:document-units="mm"
     inkscape:zoom="1.4218013"
     inkscape:cx="199.74661"
     inkscape:cy="162.46995"
     inkscape:window-width="1920"
     inkscape:window-height="998"
     inkscape:window-x="0"
     inkscape:window-y="24"
     inkscape:window-maximized="1"
     inkscape:current-layer="layer1" />
  <defs
     id="defs1" />
  <g
     inkscape:label="Layer 1"
     inkscape:groupmode="layer"
     id="layer1">
    <g
       id="g985"
       transform="matrix(0.23643124,0,0,0.23643124,-73.156454,-971.71572)">
      <text
         xml:space="preserve"
         style="font-style:normal;font-variant:normal;font-weight:normal;font-stretch:normal;font-size:8.60172px;font-family:Ubuntu;-inkscape-font-specification:Ubuntu;fill:#091635;fill-opacity:1;stroke-width:0.716813"
         x="361.71686"
         y="4214.6499"
         id="text567-1"><tspan
           sodipodi:role="line"
           id="tspan567-2"
           x="361.71686"
           y="4214.6499"
           style="font-style:normal;font-variant:normal;font-weight:bold;font-stretch:normal;font-family:Ubuntu;-inkscape-font-specification:'Ubuntu Bold';fill:#091635;fill-opacity:1;stroke-width:0.716813">PT Daksinapati Makara Putra</tspan></text>
      <path
         style="fill:#091635;fill-opacity:1;stroke-width:0.420241"
         d="m 394.04184,4202.5323 c -0.11315,-0.2949 -0.1545,-4.5025 -0.0919,-9.3504 l 0.11387,-8.8142 h 5.91468 c 5.71377,0 5.97256,0.038 7.6185,1.1279 2.5083,1.6606 3.4866,3.9802 3.4866,8.2669 0,4.9723 -1.39514,7.4436 -4.91001,8.6971 -2.17312,0.7751 -11.84003,0.833 -12.13177,0.073 z m 10.42298,-5.0062 c 0.54349,-0.6314 0.73542,-1.5951 0.73542,-3.6928 0,-3.7814 -0.90661,-5.053 -3.60255,-5.053 h -1.86059 v 4.7627 c 0,2.6195 0.13574,4.8985 0.30164,5.0644 0.55081,0.5508 3.67895,-0.2135 4.42608,-1.0813 z m 9.65751,-3.808 0.1131,-9.3504 h 3.77302 3.77302 l 1.30237,4.8328 c 0.7163,2.658 1.39679,5.1127 1.5122,5.4547 0.11541,0.3421 0.83149,-1.8782 1.59128,-4.9339 l 1.38145,-5.5559 3.83937,0.1012 3.83936,0.1011 v 9.2453 9.2453 l -2.40533,0.1257 -2.40532,0.1258 -0.11613,-6.4294 -0.11611,-6.4293 -1.66502,6.4087 -1.66502,6.4087 h -2.15856 -2.15857 l -0.95294,-3.6772 c -0.52412,-2.0224 -1.29576,-4.9063 -1.71476,-6.4086 l -0.76183,-2.7316 -0.0298,6.4087 -0.0298,6.4087 h -2.52948 -2.52949 z m 24.69723,-0.1574 v -9.5078 l 5.98844,0.1948 c 8.26607,0.2688 9.79586,1.2126 9.74941,6.0145 -0.0379,3.9159 -2.1532,5.6559 -7.10866,5.8473 l -2.53569,0.098 -0.12206,3.4305 -0.12205,3.4305 h -2.9247 -2.92469 z m 9.5815,-1.9228 c 0.27736,-0.2774 0.50429,-0.9014 0.50429,-1.3868 0,-1.3026 -0.81078,-1.8911 -2.6055,-1.8911 h -1.59691 v 1.8911 1.8911 h 1.59691 c 0.87831,0 1.82385,-0.2269 2.10121,-0.5043 z M 412.4137,4177.194 c -7.12026,-2.1049 -13.85208,-6.8265 -17.9326,-12.5776 -6.3301,-8.9218 -7.98161,-19.0438 -4.83246,-29.6181 0.45236,-1.5189 1.09578,-3.1352 1.42981,-3.5916 0.59551,-0.8137 0.66312,-0.8155 3.47732,-0.089 5.89181,1.5217 10.65054,4.5918 14.35082,9.2584 4.06795,5.1303 5.8954,10.0197 6.23635,16.6856 0.2822,5.5174 -0.48317,9.4672 -2.70657,13.9675 l -1.60631,3.2513 2.18761,0.6359 c 3.87055,1.1252 3.52909,2.404 3.52909,-13.2162 0,-13.1216 -0.0475,-13.9805 -0.90022,-16.2844 -3.21728,-8.6921 -11.47186,-15.7733 -19.90739,-17.0776 l -3.32821,-0.5146 1.75586,-1.9049 c 0.96572,-1.0477 2.75594,-2.4589 3.97826,-3.136 1.9033,-1.0544 2.67497,-1.2312 5.37422,-1.2313 4.03779,-1e-4 7.16242,1.4381 10.6238,4.89 4.0903,4.079 3.85695,2.4693 3.99718,27.5736 0.0762,13.6333 0.2753,21.9576 0.5253,21.9576 0.25172,0 0.40265,-8.4784 0.40265,-22.6181 0,-24.9812 0.0437,-24.5229 -2.69735,-28.2651 -2.68738,-3.6688 -7.24479,-5.8276 -12.6274,-5.9813 -1.50579,-0.043 -2.73957,-0.2071 -2.74172,-0.3648 -0.002,-0.1576 0.51614,-0.656 1.15175,-1.1076 4.73374,-3.363 11.06398,-3.0254 15.44804,0.8239 3.26216,2.8642 3.12805,1.5334 3.13842,31.1429 0.006,17.2938 0.15387,26.3701 0.42947,26.3701 0.2756,0 0.42342,-9.0763 0.42947,-26.3701 0.0104,-29.63 -0.12695,-28.2759 3.16032,-31.1622 2.38379,-2.0929 4.94297,-3.0851 8.03302,-3.1142 2.21604,-0.021 3.10207,0.2094 5.46151,1.4192 1.54899,0.7943 2.87535,1.6332 2.94746,1.8644 0.0766,0.2453 -1.00793,0.4527 -2.60625,0.4984 -1.50556,0.043 -3.73054,0.3669 -4.94441,0.7198 -4.38794,1.2756 -8.85955,5.5117 -9.94551,9.4216 -0.56904,2.0488 -0.59612,46.7231 -0.0283,46.7231 0.25465,0 0.45055,-8.2667 0.5253,-22.1677 l 0.11921,-22.1678 1.19183,-1.9897 c 1.57256,-2.6253 4.97542,-5.6553 7.84337,-6.984 1.76821,-0.8191 3.00256,-1.0734 5.25301,-1.0823 3.75652,-0.015 6.154,1.041 9.13377,4.0221 l 2.21275,2.2138 -3.51567,0.546 c -6.29079,0.9771 -11.50127,4.284 -15.84582,10.0565 -1.31958,1.7533 -2.93483,4.4431 -3.58945,5.9772 l -1.1902,2.7894 -0.0114,14.2287 -0.0114,14.2287 1.15567,-0.279 c 2.9152,-0.7037 4.30747,-1.1195 4.30747,-1.2866 0,-0.1 -0.5706,-1.3042 -1.26801,-2.6766 -2.7629,-5.4371 -3.6438,-12.7609 -2.306,-19.1723 0.3376,-1.618 1.49953,-4.7359 2.58207,-6.9289 2.65447,-5.3773 6.80356,-9.5689 11.94874,-12.071 3.59485,-1.7482 7.50847,-2.9035 8.52056,-2.5151 0.30619,0.1175 1.07192,1.7725 1.70162,3.6778 5.26652,15.9348 -1.80317,32.7738 -16.92856,40.3213 -5.0113,2.5007 -8.82401,3.3654 -14.71862,3.3384 -3.90214,-0.018 -5.56709,-0.2283 -8.37331,-1.0579 z m -2.48839,-5.9588 c 1.52177,-2.8219 2.75386,-7.1136 3.08209,-10.7357 0.69397,-7.6583 -2.8908,-16.3878 -8.90269,-21.6797 -2.38444,-2.0989 -8.18366,-5.0449 -10.22643,-5.195 -1.3649,-0.1003 -1.48751,0 -2.17887,1.8361 -2.48017,6.5759 -1.75482,16.5708 1.69913,23.413 1.37671,2.7272 4.35328,6.797 6.4089,8.7627 1.8816,1.7992 7.53847,5.5725 8.37276,5.5848 0.37196,0.01 1.14629,-0.8758 1.74511,-1.9862 z m 27.18349,0.4202 c 3.29598,-1.9362 7.7159,-6.1965 9.90426,-9.5466 5.06633,-7.7559 6.47611,-18.045 3.61128,-26.3566 -0.74032,-2.1479 -0.82442,-2.2296 -2.18998,-2.1274 -0.78105,0.059 -3.01653,0.8893 -4.96774,1.8464 -10.38664,5.0944 -16.12756,17.1463 -13.67745,28.7129 0.71928,3.3956 3.26886,9.0472 4.0814,9.0472 0.30557,0 1.76277,-0.7091 3.23823,-1.5759 z"
         id="path567" />
    </g>
  </g>
</svg>
